<svg width="36" height="36" viewBox="0 0 36 36" fill="none" xmlns="http://www.w3.org/2000/svg">
<path d="M18.0001 35.3774C14.5631 35.3774 11.2034 34.3583 8.34565 32.4488C5.48793 30.5393 3.26061 27.8253 1.94535 24.65C0.630088 21.4747 0.285956 17.9807 0.95647 14.6098C1.62698 11.2389 3.28203 8.14248 5.71232 5.7122C8.14261 3.28191 11.239 1.62686 14.6099 0.956348C17.9808 0.285834 21.4748 0.629966 24.6501 1.94523C27.8255 3.26049 30.5395 5.48781 32.4489 8.34552C34.3584 11.2032 35.3776 14.563 35.3776 17.9999C35.3729 22.6073 33.5406 27.0247 30.2827 30.2826C27.0248 33.5405 22.6074 35.3728 18.0001 35.3774V35.3774ZM18.0001 2.37244C14.9092 2.37244 11.8878 3.28898 9.31789 5.00615C6.74796 6.72332 4.74495 9.16401 3.56214 12.0196C2.37933 14.8751 2.06985 18.0173 2.67284 21.0487C3.27583 24.0802 4.76421 26.8647 6.94975 29.0503C9.1353 31.2358 11.9199 32.7242 14.9513 33.3272C17.9827 33.9302 21.1249 33.6207 23.9805 32.4379C26.836 31.2551 29.2767 29.252 30.9939 26.6821C32.711 24.1122 33.6276 21.0908 33.6276 17.9999C33.6276 15.9477 33.2233 13.9156 32.438 12.0196C31.6526 10.1235 30.5015 8.40078 29.0504 6.94963C27.5992 5.49849 25.8765 4.34737 23.9805 3.56202C22.0844 2.77666 20.0523 2.37244 18.0001 2.37244V2.37244Z" fill="#95E1D3"/>
</svg>
